<svg width="28" height="28" viewBox="0 0 28 28" fill="none" xmlns="http://www.w3.org/2000/svg">
<path d="M13.9997 26.5418C7.08134 26.5418 1.45801 20.9185 1.45801 14.0002C1.45801 7.08183 7.08134 1.4585 13.9997 1.4585C20.918 1.4585 26.5413 7.08183 26.5413 14.0002C26.5413 20.9185 20.918 26.5418 13.9997 26.5418ZM13.9997 3.2085C8.04967 3.2085 3.20801 8.05016 3.20801 14.0002C3.20801 19.9502 8.04967 24.7918 13.9997 24.7918C19.9497 24.7918 24.7913 19.9502 24.7913 14.0002C24.7913 8.05016 19.9497 3.2085 13.9997 3.2085Z" fill="#6C6F93"/>
<path d="M18.6663 14.875H9.33301C8.85467 14.875 8.45801 14.4783 8.45801 14C8.45801 13.5217 8.85467 13.125 9.33301 13.125H18.6663C19.1447 13.125 19.5413 13.5217 19.5413 14C19.5413 14.4783 19.1447 14.875 18.6663 14.875Z" fill="#6C6F93"/>
<path d="M14 19.5418C13.5217 19.5418 13.125 19.1452 13.125 18.6668V9.3335C13.125 8.85516 13.5217 8.4585 14 8.4585C14.4783 8.4585 14.875 8.85516 14.875 9.3335V18.6668C14.875 19.1452 14.4783 19.5418 14 19.5418Z" fill="#6C6F93"/>
</svg>
