<svg width="24" height="24" viewBox="0 0 24 24" fill="none" xmlns="http://www.w3.org/2000/svg">
<path d="M22.75 6.55C22.75 7.68 22.48 8.87 21.96 10.1C21.45 11.3 20.75 12.51 19.9 13.69C19.04 14.86 18.08 15.99 17.03 17.06C15.96 18.12 14.83 19.08 13.67 19.93C12.47 20.79 11.27 21.48 10.11 21.97C8.87 22.49 7.67 22.75 6.54 22.75C5.76 22.75 5.02 22.61 4.33 22.34C3.62 22.06 2.96 21.61 2.39 21C1.63 20.23 1.25 19.35 1.25 18.41C1.25 18.02 1.34 17.62 1.5 17.28C1.68 16.89 1.95 16.56 2.31 16.32L5.58 14C5.87 13.79 6.15 13.63 6.43 13.52C6.73 13.39 7.03 13.32 7.32 13.32C7.7 13.32 8.07 13.43 8.42 13.64C8.69 13.79 8.98 14.02 9.27 14.31L9.98 14.99C10.01 14.98 10.03 14.97 10.05 14.96C10.26 14.84 10.62 14.6 11.16 14.14C11.72 13.65 12.23 13.19 12.7 12.73C13.28 12.14 13.74 11.65 14.12 11.19C14.6 10.62 14.84 10.25 14.95 10.03L15 10.05L14.28 9.32C13.97 9.01 13.74 8.71 13.59 8.42C13.25 7.87 13.19 7.17 13.48 6.47C13.59 6.21 13.74 5.93 13.95 5.63L16.31 2.31C16.56 1.94 16.88 1.67 17.26 1.51C17.64 1.36 17.99 1.29 18.34 1.29C18.82 1.29 19.3 1.4 19.75 1.61C20.2 1.82 20.59 2.08 20.95 2.41C21.58 2.98 22.03 3.6 22.32 4.32C22.6 5.01 22.75 5.76 22.75 6.55ZM2.75 18.41C2.75 18.96 2.99 19.47 3.47 19.96C3.9 20.42 4.37 20.74 4.88 20.94C5.4 21.15 5.95 21.25 6.54 21.25C7.47 21.25 8.48 21.03 9.52 20.59C10.58 20.14 11.68 19.51 12.78 18.71C13.88 17.91 14.95 17 15.96 16C16.95 15 17.87 13.92 18.68 12.81C19.47 11.73 20.11 10.62 20.57 9.52C21.3 7.81 21.47 6.21 20.92 4.89C20.71 4.38 20.39 3.93 19.93 3.52C19.68 3.29 19.41 3.11 19.09 2.96C18.84 2.84 18.58 2.78 18.32 2.78C18.16 2.78 18 2.81 17.82 2.89C17.76 2.92 17.65 2.98 17.52 3.17L15.16 6.49C15.02 6.69 14.92 6.87 14.85 7.04C14.76 7.26 14.67 7.35 14.88 7.69C14.98 7.89 15.13 8.07 15.33 8.27L16.08 9.03C16.46 9.42 16.55 10.02 16.38 10.48L16.26 10.75C16.04 11.16 15.7 11.64 15.25 12.17C14.84 12.65 14.36 13.17 13.74 13.8C13.24 14.29 12.71 14.78 12.12 15.29C11.57 15.76 11.1 16.1 10.71 16.31L10.41 16.43C10.18 16.49 10.05 16.51 9.91 16.51C9.55 16.51 9.23 16.38 8.98 16.13L8.2 15.38C8 15.18 7.81 15.03 7.64 14.93C7.51 14.85 7.4 14.82 7.3 14.82C7.22 14.82 7.1 14.85 6.98 14.9C6.82 14.97 6.64 15.08 6.45 15.22L3.17 17.54C3.03 17.64 2.93 17.76 2.86 17.91C2.79 18.07 2.75 18.24 2.75 18.41ZM15.01 10.05L15.69 10.21L14.99 9.94C14.98 9.99 14.99 10.03 15.01 10.05Z" fill="black"/>
<path d="M9.75 5.5C9.75 5.91 9.41 6.25 9 6.25C8.64 6.25 7.89 6.61 7.25 7.21C6.62 7.8 6.25 8.45 6.25 9C6.25 9.41 5.91 9.75 5.5 9.75C5.09 9.75 4.75 9.41 4.75 9C4.75 8.03 5.27 7.01 6.22 6.12C7.11 5.29 8.2 4.75 9 4.75C9.41 4.75 9.75 5.09 9.75 5.5Z" fill="black"/>
<path d="M9.75 2C9.75 2.41 9.41 2.75 9 2.75C5.55 2.75 2.75 5.55 2.75 9C2.75 9.41 2.41 9.75 2 9.75C1.59 9.75 1.25 9.41 1.25 9C1.25 4.73 4.73 1.25 9 1.25C9.41 1.25 9.75 1.59 9.75 2Z" fill="black"/>
</svg>
