<svg width="20" height="20" viewBox="0 0 20 20" fill="none" xmlns="http://www.w3.org/2000/svg">
<path d="M15.8337 8.95817H14.167C12.1503 8.95817 11.042 7.84984 11.042 5.83317V4.1665C11.042 2.14984 12.1503 1.0415 14.167 1.0415H15.8337C17.8503 1.0415 18.9587 2.14984 18.9587 4.1665V5.83317C18.9587 7.84984 17.8503 8.95817 15.8337 8.95817ZM14.167 2.2915C12.8503 2.2915 12.292 2.84984 12.292 4.1665V5.83317C12.292 7.14984 12.8503 7.70817 14.167 7.70817H15.8337C17.1503 7.70817 17.7087 7.14984 17.7087 5.83317V4.1665C17.7087 2.84984 17.1503 2.2915 15.8337 2.2915H14.167Z" fill="white"/>
<path d="M5.83366 18.9582H4.16699C2.15033 18.9582 1.04199 17.8498 1.04199 15.8332V14.1665C1.04199 12.1498 2.15033 11.0415 4.16699 11.0415H5.83366C7.85033 11.0415 8.95866 12.1498 8.95866 14.1665V15.8332C8.95866 17.8498 7.85033 18.9582 5.83366 18.9582ZM4.16699 12.2915C2.85033 12.2915 2.29199 12.8498 2.29199 14.1665V15.8332C2.29199 17.1498 2.85033 17.7082 4.16699 17.7082H5.83366C7.15033 17.7082 7.70866 17.1498 7.70866 15.8332V14.1665C7.70866 12.8498 7.15033 12.2915 5.83366 12.2915H4.16699Z" fill="white"/>
<path d="M5.00033 8.95817C2.81699 8.95817 1.04199 7.18317 1.04199 4.99984C1.04199 2.8165 2.81699 1.0415 5.00033 1.0415C7.18366 1.0415 8.95866 2.8165 8.95866 4.99984C8.95866 7.18317 7.18366 8.95817 5.00033 8.95817ZM5.00033 2.2915C3.50866 2.2915 2.29199 3.50817 2.29199 4.99984C2.29199 6.4915 3.50866 7.70817 5.00033 7.70817C6.49199 7.70817 7.70866 6.4915 7.70866 4.99984C7.70866 3.50817 6.49199 2.2915 5.00033 2.2915Z" fill="white"/>
<path d="M15.0003 18.9582C12.817 18.9582 11.042 17.1832 11.042 14.9998C11.042 12.8165 12.817 11.0415 15.0003 11.0415C17.1837 11.0415 18.9587 12.8165 18.9587 14.9998C18.9587 17.1832 17.1837 18.9582 15.0003 18.9582ZM15.0003 12.2915C13.5087 12.2915 12.292 13.5082 12.292 14.9998C12.292 16.4915 13.5087 17.7082 15.0003 17.7082C16.492 17.7082 17.7087 16.4915 17.7087 14.9998C17.7087 13.5082 16.492 12.2915 15.0003 12.2915Z" fill="white"/>
</svg>
