<svg width="16" height="16" viewBox="0 0 16 16" fill="none" xmlns="http://www.w3.org/2000/svg">
<path d="M4.25 0.750063H0.5V4.50006H4.25V0.750063ZM3.25 3.50006H1.5V1.75006H3.25V3.50006ZM4.25 6.25006H0.5V10.0001H4.25V6.25006ZM3.25 9.00006H1.5V7.25006H3.25V9.00006ZM4.25 11.7501H0.5V15.5001H4.25V11.7501ZM3.25 14.5001H1.5V12.7501H3.25V14.5001ZM5.5 0.75H15.5V1.75H5.5V0.75ZM5.5 3.5H13.5V4.5H5.5V3.5ZM5.5 6.25H15.5V7.25H5.5V6.25ZM5.5 9H13.5V10H5.5V9ZM5.5 14.5H13.5V15.5H5.5V14.5ZM5.5 11.75H15.5V12.75H5.5V11.75Z" fill="black"/>
</svg>
