<svg width="20" height="20" viewBox="0 0 20 20" fill="none" xmlns="http://www.w3.org/2000/svg">
<path d="M12.5003 18.9582H7.50033C2.97533 18.9582 1.04199 17.0248 1.04199 12.4998V7.49984C1.04199 2.97484 2.97533 1.0415 7.50033 1.0415H9.16699C9.50866 1.0415 9.79199 1.32484 9.79199 1.6665C9.79199 2.00817 9.50866 2.2915 9.16699 2.2915H7.50033C3.65866 2.2915 2.29199 3.65817 2.29199 7.49984V12.4998C2.29199 16.3415 3.65866 17.7082 7.50033 17.7082H12.5003C16.342 17.7082 17.7087 16.3415 17.7087 12.4998V10.8332C17.7087 10.4915 17.992 10.2082 18.3337 10.2082C18.6753 10.2082 18.9587 10.4915 18.9587 10.8332V12.4998C18.9587 17.0248 17.0253 18.9582 12.5003 18.9582Z" fill="white"/>
<path d="M7.08311 14.7415C6.57478 14.7415 6.10811 14.5581 5.76645 14.2248C5.35811 13.8165 5.18311 13.2248 5.27478 12.5998L5.63311 10.0915C5.69978 9.60814 6.01645 8.98314 6.35811 8.64147L12.9248 2.0748C14.5831 0.416471 16.2664 0.416471 17.9248 2.0748C18.8331 2.98314 19.2414 3.90814 19.1581 4.83314C19.0831 5.58314 18.6831 6.31647 17.9248 7.06647L11.3581 13.6331C11.0164 13.9748 10.3914 14.2915 9.90811 14.3581L7.39978 14.7165C7.29145 14.7415 7.18311 14.7415 7.08311 14.7415ZM13.8081 2.95814L7.24145 9.5248C7.08311 9.68314 6.89978 10.0498 6.86645 10.2665L6.50811 12.7748C6.47478 13.0165 6.52478 13.2165 6.64978 13.3415C6.77478 13.4665 6.97478 13.5165 7.21645 13.4831L9.72478 13.1248C9.94145 13.0915 10.3164 12.9081 10.4664 12.7498L17.0331 6.18314C17.5748 5.64147 17.8581 5.15814 17.8998 4.70814C17.9498 4.16647 17.6664 3.59147 17.0331 2.9498C15.6998 1.61647 14.7831 1.99147 13.8081 2.95814Z" fill="white"/>
<path d="M16.5413 8.19173C16.483 8.19173 16.4246 8.1834 16.3746 8.16673C14.183 7.55006 12.4413 5.8084 11.8246 3.61673C11.733 3.2834 11.9246 2.94173 12.258 2.84173C12.5913 2.75006 12.933 2.94173 13.0246 3.27506C13.5246 5.05006 14.933 6.4584 16.708 6.9584C17.0413 7.05006 17.233 7.40006 17.1413 7.7334C17.0663 8.01673 16.8163 8.19173 16.5413 8.19173Z" fill="white"/>
</svg>
