<svg width="16" height="16" viewBox="0 0 16 16" fill="none" xmlns="http://www.w3.org/2000/svg">
<path d="M10.8532 14.7332H8.31991C7.94658 14.7332 7.13324 14.6198 6.69991 14.1865L4.67991 12.6265L5.29324 11.8332L7.35991 13.4332C7.52658 13.5932 7.94658 13.7265 8.31991 13.7265H10.8532C11.4532 13.7265 12.0999 13.2465 12.2332 12.7065L13.8466 7.8065C13.9532 7.51316 13.9332 7.2465 13.7932 7.05316C13.6466 6.8465 13.3799 6.7265 13.0532 6.7265H10.3866C10.0399 6.7265 9.71991 6.57983 9.49991 6.3265C9.27324 6.0665 9.17324 5.71983 9.22658 5.35983L9.55991 3.21983C9.63991 2.8465 9.38658 2.4265 9.02658 2.3065C8.69991 2.1865 8.27991 2.35983 8.13324 2.57316L5.39991 6.63983L4.57324 6.0865L7.30658 2.01983C7.72658 1.39316 8.64658 1.09316 9.36658 1.3665C10.1999 1.63983 10.7332 2.55983 10.5466 3.41316L10.2199 5.51316C10.2132 5.55983 10.2132 5.6265 10.2599 5.67983C10.2932 5.71316 10.3399 5.73316 10.3932 5.73316H13.0599C13.7132 5.73316 14.2799 6.0065 14.6132 6.47983C14.9399 6.93983 15.0066 7.5465 14.7932 8.13316L13.1999 12.9865C12.9532 13.9532 11.9266 14.7332 10.8532 14.7332Z" fill="#9496B8"/>
<path d="M3.58691 13.9998H2.92025C1.68691 13.9998 1.08691 13.4198 1.08691 12.2331V5.69977C1.08691 4.51311 1.68691 3.93311 2.92025 3.93311H3.58691C4.82025 3.93311 5.42025 4.51311 5.42025 5.69977V12.2331C5.42025 13.4198 4.82025 13.9998 3.58691 13.9998ZM2.92025 4.93311C2.19358 4.93311 2.08691 5.10644 2.08691 5.69977V12.2331C2.08691 12.8264 2.19358 12.9998 2.92025 12.9998H3.58691C4.31358 12.9998 4.42025 12.8264 4.42025 12.2331V5.69977C4.42025 5.10644 4.31358 4.93311 3.58691 4.93311H2.92025Z" fill="#9496B8"/>
</svg>
