<svg width="208" height="64" viewBox="0 0 208 64" fill="none" xmlns="http://www.w3.org/2000/svg">
<path d="M10.0781 56.0312C7.78646 56.0312 5.92708 55.5938 4.5 54.7188C3.07292 53.8542 2.02604 52.6875 1.35938 51.2188C0.692708 49.7604 0.359375 48.1406 0.359375 46.3594C0.359375 45.3906 0.453125 44.3646 0.640625 43.2812C0.828125 42.1875 1.14062 41.0573 1.57812 39.8906L5.125 41.1719C4.80208 42.1094 4.55729 43.0208 4.39062 43.9062C4.22396 44.7812 4.14062 45.5885 4.14062 46.3281C4.14062 47.349 4.32292 48.2812 4.6875 49.125C5.0625 49.9688 5.68229 50.6406 6.54688 51.1406C7.41146 51.6406 8.58854 51.8906 10.0781 51.8906C11.7135 51.8906 13.0417 51.7135 14.0625 51.3594C15.0938 51.0052 15.849 50.6042 16.3281 50.1562C16.8073 49.7083 17.0469 49.3438 17.0469 49.0625C17.0469 48.6771 16.8594 48.401 16.4844 48.2344C16.1198 48.0781 15.5365 48 14.7344 48H12.3125C11.9167 48 11.6615 47.8958 11.5469 47.6875C11.4427 47.4792 11.3385 47.1979 11.2344 46.8438L10.625 44.5938C10.5625 44.3646 10.5469 44.1771 10.5781 44.0312C10.6094 43.8854 10.7917 43.8125 11.125 43.8125H20.4062V48H20.375C20.4583 48.2292 20.5104 48.4167 20.5312 48.5625C20.5521 48.7083 20.5625 48.8698 20.5625 49.0469C20.5625 49.9531 20.3333 50.8229 19.875 51.6562C19.4167 52.5 18.7396 53.25 17.8438 53.9062C16.9479 54.5625 15.849 55.0781 14.5469 55.4531C13.2448 55.8385 11.7552 56.0312 10.0781 56.0312ZM19.7812 43.7969H29.2344V48H19.7812V43.7969ZM28.625 43.7969H38.0781V48H28.625V43.7969ZM37.4688 43.7969H46.9219V48H37.4688V43.7969ZM46.3125 43.7969H55.7656V48H46.3125V43.7969ZM57.6562 48H55.1562V43.7969H57.6562C58.5 43.7969 59.0729 43.5417 59.375 43.0312C59.6875 42.5208 59.8438 41.8698 59.8438 41.0781C59.8438 40.3802 59.7604 39.6198 59.5938 38.7969C59.4375 37.9635 59.276 37.1458 59.1094 36.3438L62.9375 35.3594C63.1354 36.3073 63.2917 37.25 63.4062 38.1875C63.5208 39.1146 63.5781 40 63.5781 40.8438C63.5781 42.2083 63.3958 43.4323 63.0312 44.5156C62.6667 45.5885 62.0521 46.4375 61.1875 47.0625C60.3229 47.6875 59.1458 48 57.6562 48ZM59.5 28L62.2031 30.7031L59.5 33.4062L56.7969 30.7031L59.5 28ZM78.4375 44.6875C78.4375 47.0417 78 49.0104 77.125 50.5938C76.2604 52.1875 75.0156 53.4583 73.3906 54.4062C71.776 55.3646 69.849 56.0573 67.6094 56.4844L66.1875 52.6406C67.6458 52.3594 68.9375 51.9896 70.0625 51.5312C71.1979 51.0833 72.125 50.5417 72.8438 49.9062C73.5729 49.2812 74.0573 48.5781 74.2969 47.7969C74.0052 47.8594 73.6927 47.9167 73.3594 47.9688C73.0365 48.0104 72.7448 48.0312 72.4844 48.0312C70.5365 48.0312 69.0052 47.6042 67.8906 46.75C66.7865 45.8854 66.2344 44.4896 66.2344 42.5625C66.2344 41.7396 66.3594 40.9062 66.6094 40.0625C66.8594 39.2083 67.2292 38.4219 67.7188 37.7031C68.2083 36.9844 68.8125 36.4062 69.5312 35.9688C70.2604 35.5208 71.099 35.2969 72.0469 35.2969C73.1406 35.2969 74.0885 35.5625 74.8906 36.0938C75.6927 36.6146 76.3542 37.3281 76.875 38.2344C77.3958 39.1302 77.7865 40.1354 78.0469 41.25C78.3073 42.3646 78.4375 43.5104 78.4375 44.6875ZM72.4531 43.8594C72.8906 43.8594 73.3021 43.8333 73.6875 43.7812C74.0833 43.7188 74.4219 43.651 74.7031 43.5781C74.6615 43.099 74.5781 42.6146 74.4531 42.125C74.3281 41.625 74.1615 41.1719 73.9531 40.7656C73.7448 40.349 73.4844 40.0156 73.1719 39.7656C72.8594 39.5156 72.474 39.3906 72.0156 39.3906C71.4844 39.3906 71.0625 39.5677 70.75 39.9219C70.4479 40.276 70.2344 40.6875 70.1094 41.1562C69.9948 41.625 69.9375 42.0417 69.9375 42.4062C69.9375 43 70.1667 43.3906 70.625 43.5781C71.0938 43.7656 71.7031 43.8594 72.4531 43.8594ZM85.1875 43.8594C86.1458 43.8594 87.0417 43.7865 87.875 43.6406C88.7083 43.4948 89.3802 43.2448 89.8906 42.8906C90.401 42.526 90.6562 42.0208 90.6562 41.375C90.6562 40.7188 90.3594 40.026 89.7656 39.2969C89.1719 38.5677 88.3646 37.8385 87.3438 37.1094C86.3229 36.3698 85.1719 35.6875 83.8906 35.0625L85.6875 31.3125C86.8438 31.8854 87.9427 32.5104 88.9844 33.1875C90.026 33.8646 90.9531 34.6094 91.7656 35.4219C92.5781 36.2344 93.2188 37.125 93.6875 38.0938C94.1562 39.0521 94.3906 40.099 94.3906 41.2344C94.3906 42.8281 94.026 44.1198 93.2969 45.1094C92.5781 46.099 91.5469 46.8229 90.2031 47.2812C88.8698 47.7396 87.276 47.9688 85.4219 47.9688C84.6198 47.9688 83.8646 47.9427 83.1562 47.8906C82.4583 47.8281 81.776 47.724 81.1094 47.5781V43.3906C81.7865 43.526 82.4948 43.6406 83.2344 43.7344C83.9844 43.8177 84.6354 43.8594 85.1875 43.8594ZM106.125 55.75C104.104 55.75 102.422 55.3854 101.078 54.6562C99.7448 53.9375 98.7448 52.8958 98.0781 51.5312C97.4115 50.1771 97.0781 48.5469 97.0781 46.6406C97.0781 45.4531 97.2135 44.224 97.4844 42.9531C97.7656 41.6719 98.1354 40.4427 98.5938 39.2656L102.141 40.6406C101.807 41.5781 101.505 42.5833 101.234 43.6562C100.964 44.7292 100.828 45.7344 100.828 46.6719C100.828 47.724 101.016 48.6198 101.391 49.3594C101.776 50.099 102.354 50.6562 103.125 51.0312C103.906 51.4167 104.906 51.6094 106.125 51.6094C107.312 51.6094 108.255 51.3802 108.953 50.9219C109.651 50.474 110.146 49.8177 110.438 48.9531C110.74 48.099 110.891 47.0573 110.891 45.8281V26.1719H114.797V40.3281C114.797 41.3698 114.958 42.2083 115.281 42.8438C115.615 43.4792 116.302 43.7969 117.344 43.7969H117.828V48H117.375C116.74 48 116.224 47.9323 115.828 47.7969C115.443 47.651 115.068 47.4375 114.703 47.1562C114.62 48.5104 114.391 49.7188 114.016 50.7812C113.651 51.8438 113.12 52.7448 112.422 53.4844C111.724 54.224 110.854 54.7865 109.812 55.1719C108.771 55.5573 107.542 55.75 106.125 55.75ZM125.391 22.4688C125.193 22.4583 125.016 22.4479 124.859 22.4375C124.703 22.4271 124.51 22.401 124.281 22.3594C123.729 23.099 122.969 23.6667 122 24.0625C121.042 24.4479 119.901 24.6771 118.578 24.75L118.344 23.3438C119.333 23.2604 120.219 23.1042 121 22.875C121.781 22.6458 122.37 22.3594 122.766 22.0156C122.286 21.9531 121.833 21.8177 121.406 21.6094C120.979 21.401 120.625 21.1042 120.344 20.7188C120.073 20.3333 119.938 19.8385 119.938 19.2344C119.938 18.5052 120.193 17.8802 120.703 17.3594C121.214 16.8281 121.854 16.5625 122.625 16.5625C123.396 16.5625 124.036 16.8125 124.547 17.3125C125.057 17.8021 125.312 18.4479 125.312 19.25C125.312 19.5521 125.281 19.8594 125.219 20.1719C125.156 20.4844 125.062 20.7969 124.938 21.1094C125.052 21.1198 125.151 21.1302 125.234 21.1406C125.318 21.151 125.427 21.1615 125.562 21.1719L125.391 22.4688ZM123.453 20.7812C123.568 20.5417 123.661 20.2865 123.734 20.0156C123.807 19.7344 123.844 19.4844 123.844 19.2656C123.844 18.901 123.729 18.6094 123.5 18.3906C123.281 18.1719 123.01 18.0625 122.688 18.0625C122.312 18.0625 122.005 18.1927 121.766 18.4531C121.536 18.7135 121.422 18.9948 121.422 19.2969C121.422 19.6094 121.516 19.8594 121.703 20.0469C121.901 20.2344 122.151 20.3802 122.453 20.4844C122.766 20.5885 123.099 20.6875 123.453 20.7812ZM118.5 29.2344V27L131.047 21.8906V24.1406L118.5 29.2344ZM122.516 33.4219C123.328 33.9323 124.104 34.4323 124.844 34.9219C125.583 35.4115 126.26 35.9167 126.875 36.4375C127.49 36.9479 128.026 37.4844 128.484 38.0469C128.943 38.6094 129.297 39.2083 129.547 39.8438C129.797 40.4792 129.922 41.1615 129.922 41.8906C129.922 43.4635 129.562 44.6979 128.844 45.5938C128.125 46.4792 127.099 47.1042 125.766 47.4688C124.443 47.8229 122.865 48 121.031 48H117.219V43.7969H121.016C122.172 43.7969 123.125 43.7448 123.875 43.6406C124.635 43.526 125.203 43.3281 125.578 43.0469C125.953 42.7656 126.141 42.3594 126.141 41.8281C126.141 41.5052 125.974 41.151 125.641 40.7656C125.307 40.3802 124.87 39.9792 124.328 39.5625C123.786 39.1458 123.193 38.7292 122.547 38.3125C121.911 37.8958 121.276 37.4844 120.641 37.0781C120.016 36.6719 119.453 36.2865 118.953 35.9219C118.547 35.6094 118.234 35.2083 118.016 34.7188C117.797 34.2292 117.688 33.7344 117.688 33.2344C117.688 32.6823 117.818 32.1615 118.078 31.6719C118.349 31.1823 118.76 30.8281 119.312 30.6094L131.219 25.75V29.8906L122.516 33.4219Z" fill="#375437"/>
<path d="M189.545 0.546425C187.483 0.887943 184.048 1.98079 181.987 3.07364C174.841 6.6254 171.886 14.8218 175.116 22.1985C176.284 24.794 176.559 26.365 176.146 28.2092L175.734 30.7364L173.742 28.4141C172.505 26.9797 171.749 25.2721 171.68 24.0427C171.68 22.8815 170.925 20.4226 170.031 18.4418C168.107 14.4803 164.603 12.0896 160.412 12.0896C157.32 12.0896 149.556 14.4803 147.632 16.0512L146.052 17.2807L147.563 20.6275C149.625 25.3405 152.098 28.2775 155.19 29.8485C158.419 31.4877 161.237 31.556 164.535 30.19C167.283 29.0971 167.352 27.3212 164.741 27.6628C163.847 27.7994 161.992 28.0043 160.687 28.2092C157.457 28.619 154.366 26.7065 151.755 22.54C150.587 20.7641 149.693 18.9883 149.693 18.5784C149.693 16.3244 161.03 14.0704 164.122 15.6414C165.703 16.461 169.482 22.6766 168.795 23.3597C168.657 23.4963 166.39 22.54 163.779 21.2423C159.038 18.8517 156.221 18.4418 156.221 20.1494C156.221 20.6275 157.938 21.7204 160.068 22.6083C162.198 23.428 165.016 24.8623 166.39 25.682C169.275 27.4578 174.429 32.9904 174.429 34.3565C174.429 35.1078 171.474 35.3127 159.862 35.4493L145.227 35.6542L145.021 37.5667C144.884 38.6596 145.433 41.5966 146.189 44.1921C147.907 49.793 151.755 54.9157 156.564 58.0576C158.419 59.2188 160 60.7215 160 61.2679C160 63.7951 161.305 64 176.49 64C191.675 64 192.98 63.7951 192.98 61.2679C193.049 60.7215 194.629 59.1505 196.553 57.8527C198.546 56.555 201.294 53.8911 202.737 52.047C205.623 48.3586 208.371 40.7086 207.959 37.5667L207.753 35.6542L192.774 35.4493L177.795 35.3127L178.276 32.0342C179.582 23.0181 184.254 15.7097 192.705 9.63074C194.217 8.46959 194.492 7.92316 193.942 7.30843C192.156 5.46425 183.773 12.4312 180.132 18.8517L178.002 22.4034L177.246 20.2177C176.215 17.2807 176.284 13.8655 177.452 11.2017C179.376 6.6254 184.666 3.89328 193.736 2.86873L197.584 2.39061L198.065 9.01601C198.546 14.8901 198.408 15.8463 197.103 18.6467C195.316 22.1985 191.469 24.7257 185.147 26.4333C179.994 27.8677 179.307 29.6435 184.048 29.302C191.125 28.8239 199.027 23.2231 200.538 17.6222C200.882 16.2561 201.019 11.7481 200.95 7.64995L200.676 0.136608L197.034 0C194.973 0 191.606 0.20491 189.545 0.546425ZM204.936 39.889C203.218 47.7439 199.301 53.3447 193.255 56.8965C191.331 57.9893 190.232 59.1505 190.232 59.9701C190.232 61.1996 189.545 61.2679 176.49 61.2679C163.435 61.2679 162.748 61.1996 162.748 59.9701C162.748 59.1505 161.649 57.9893 159.725 56.8965C153.678 53.3447 149.762 47.7439 148.044 39.889L147.632 38.0448H176.49H205.348L204.936 39.889Z" fill="#375437"/>
</svg>
