<svg width="23" height="24" viewBox="0 0 23 24" fill="none" xmlns="http://www.w3.org/2000/svg">
<path d="M16.2624 0.204908C15.5098 0.332977 14.2556 0.742796 13.5031 1.15261C10.8943 2.48452 9.81568 5.55816 10.9946 8.32444C11.4211 9.29776 11.5214 9.88687 11.3709 10.5784L11.2204 11.5261L10.493 10.6553C10.0414 10.1174 9.76551 9.47705 9.74043 9.01601C9.74043 8.58058 9.4645 7.65849 9.13841 6.91569C8.43605 5.4301 7.15674 4.53362 5.6266 4.53362C4.49781 4.53362 1.66328 5.4301 0.960915 6.01921L0.383976 6.48026L0.935831 7.73532C1.68836 9.50267 2.5914 10.6041 3.72019 11.1932C4.89915 11.8079 5.92761 11.8335 7.13166 11.3212C8.13503 10.9114 8.16012 10.2455 7.20691 10.3735C6.88082 10.4248 6.20354 10.5016 5.72694 10.5784C4.54797 10.7321 3.41918 10.0149 2.46597 8.45251C2.03954 7.78655 1.71345 7.1206 1.71345 6.96692C1.71345 6.12167 5.85236 5.27641 6.98115 5.86553C7.55809 6.17289 8.93773 8.50374 8.68689 8.75987C8.63672 8.8111 7.80894 8.45251 6.85573 7.96585C5.12491 7.06937 4.09646 6.91569 4.09646 7.55603C4.09646 7.73532 4.72356 8.14514 5.50118 8.47812C6.27879 8.78549 7.30725 9.32337 7.80894 9.63074C8.86248 10.2967 10.7438 12.3714 10.7438 12.8837C10.7438 13.1654 9.66518 13.2423 5.42593 13.2935L0.0829638 13.3703L0.00771081 14.0875C-0.0424578 14.4973 0.158217 15.5987 0.434144 16.572C1.06125 18.6724 2.46597 20.5934 4.22188 21.7716C4.89915 22.207 5.47609 22.7705 5.47609 22.9755C5.47609 23.9232 5.9527 24 11.4963 24C17.04 24 17.5166 23.9232 17.5166 22.9755C17.5417 22.7705 18.1186 22.1814 18.821 21.6948C19.5484 21.2081 20.5518 20.2092 21.0785 19.5176C22.1321 18.1345 23.1355 15.2657 22.985 14.0875L22.9097 13.3703L17.4413 13.2935L11.9729 13.2423L12.1485 12.0128C12.6251 8.6318 14.3309 5.89114 17.4162 3.61153C17.9681 3.17609 18.0684 2.97118 17.8678 2.74066C17.2156 2.04909 14.1553 4.66169 12.8258 7.06937L12.0482 8.40128L11.7723 7.58164C11.396 6.48026 11.4211 5.19957 11.8475 4.20064C12.5499 2.48453 14.4814 1.45998 17.7925 1.07578L19.1972 0.896479L19.3728 3.381C19.5484 5.58378 19.4982 5.94237 19.0216 6.99253C18.3694 8.32444 16.9647 9.27215 14.657 9.91249C12.7756 10.4504 12.5248 11.1163 14.2556 10.9883C16.8393 10.809 19.724 8.70864 20.2758 6.60833C20.4013 6.09605 20.4514 4.40555 20.4264 2.86873L20.326 0.0512276L18.9965 0C18.244 0 17.0149 0.0768414 16.2624 0.204908ZM21.8812 14.9584C21.2541 17.9039 19.8243 20.0043 17.6169 21.3362C16.9145 21.746 16.5132 22.1814 16.5132 22.4888C16.5132 22.9498 16.2624 22.9755 11.4963 22.9755C6.73031 22.9755 6.47947 22.9498 6.47947 22.4888C6.47947 22.1814 6.07812 21.746 5.37576 21.3362C3.16834 20.0043 1.73853 17.9039 1.11142 14.9584L0.960915 14.2668H11.4963H22.0318L21.8812 14.9584Z" fill="#375437" fill-opacity="0.8"/>
</svg>
