<svg width="28" height="28" viewBox="0 0 28 28" fill="none" xmlns="http://www.w3.org/2000/svg">
<path d="M13.9069 26.5418C7.00023 26.5418 1.36523 20.9185 1.36523 14.0002C1.36523 7.08183 7.00023 1.4585 13.9069 1.4585C20.8136 1.4585 26.4486 7.08183 26.4486 14.0002C26.4486 20.9185 20.8252 26.5418 13.9069 26.5418ZM13.9069 3.2085C7.9569 3.2085 3.11523 8.05016 3.11523 14.0002C3.11523 19.9502 7.9569 24.7918 13.9069 24.7918C19.8569 24.7918 24.6986 19.9502 24.6986 14.0002C24.6986 8.05016 19.8569 3.2085 13.9069 3.2085Z" fill="#6C6F93"/>
<path d="M18.5736 14.875H9.24023C8.7619 14.875 8.36523 14.4783 8.36523 14C8.36523 13.5217 8.7619 13.125 9.24023 13.125H18.5736C19.0519 13.125 19.4486 13.5217 19.4486 14C19.4486 14.4783 19.0636 14.875 18.5736 14.875Z" fill="#6C6F93"/>
</svg>
