<svg width="24" height="24" viewBox="0 0 24 24" fill="none" xmlns="http://www.w3.org/2000/svg">
<path fill-rule="evenodd" clip-rule="evenodd" d="M7.50042 21.75C7.97591 21.7502 8.44565 21.646 8.87649 21.4448C9.30734 21.2436 9.68879 20.9504 9.99395 20.5857C10.2991 20.2211 10.5205 19.7939 10.6426 19.3343C10.7647 18.8748 10.7844 18.394 10.7004 17.926L15.4304 14.614L15.4984 14.561C15.9783 14.9361 16.5539 15.1688 17.1596 15.2326C17.7654 15.2964 18.3768 15.1887 18.9243 14.9218C19.4718 14.6548 19.9332 14.2394 20.256 13.7229C20.5788 13.2064 20.75 12.6096 20.75 12.0005C20.75 11.3914 20.5788 10.7946 20.256 10.2781C19.9332 9.76157 19.4718 9.34616 18.9243 9.07923C18.3768 8.8123 17.7654 8.70458 17.1596 8.76837C16.5539 8.83216 15.9783 9.06488 15.4984 9.44L15.4304 9.386L10.7004 6.074C10.7337 5.88733 10.7504 5.696 10.7504 5.5C10.7503 4.72952 10.4764 3.98414 9.97771 3.39685C9.47899 2.80956 8.78784 2.41854 8.02756 2.29357C7.26728 2.1686 6.48734 2.3178 5.82686 2.71455C5.16638 3.1113 4.66834 3.7298 4.42159 4.4597C4.17484 5.1896 4.19543 5.98342 4.47968 6.69955C4.76393 7.41568 5.29335 8.00753 5.97351 8.36952C6.65366 8.7315 7.44029 8.84008 8.19307 8.67587C8.94585 8.51166 9.6158 8.08535 10.0834 7.473L14.5624 10.61C14.3624 11.032 14.2504 11.503 14.2504 12.001C14.2504 12.499 14.3624 12.971 14.5624 13.392L10.0824 16.528C9.74695 16.0885 9.30492 15.7419 8.79813 15.5209C8.29135 15.2999 7.73656 15.2119 7.18626 15.2651C6.63595 15.3183 6.10831 15.511 5.65326 15.825C5.19821 16.139 4.83078 16.5639 4.58573 17.0595C4.34068 17.5551 4.22612 18.105 4.25287 18.6573C4.27962 19.2095 4.44681 19.7458 4.73862 20.2154C5.03042 20.6849 5.4372 21.0723 5.92048 21.3409C6.40375 21.6094 6.94754 21.7502 7.50042 21.75ZM9.25042 18.5C9.25042 18.9641 9.06604 19.4092 8.73785 19.7374C8.40966 20.0656 7.96454 20.25 7.50042 20.25C7.03629 20.25 6.59117 20.0656 6.26298 19.7374C5.93479 19.4092 5.75042 18.9641 5.75042 18.5C5.75042 18.0359 5.93479 17.5908 6.26298 17.2626C6.59117 16.9344 7.03629 16.75 7.50042 16.75C7.96454 16.75 8.40966 16.9344 8.73785 17.2626C9.06604 17.5908 9.25042 18.0359 9.25042 18.5ZM17.5004 13.75C17.9645 13.75 18.4097 13.5656 18.7379 13.2374C19.066 12.9092 19.2504 12.4641 19.2504 12C19.2504 11.5359 19.066 11.0908 18.7379 10.7626C18.4097 10.4344 17.9645 10.25 17.5004 10.25C17.0363 10.25 16.5912 10.4344 16.263 10.7626C15.9348 11.0908 15.7504 11.5359 15.7504 12C15.7504 12.4641 15.9348 12.9092 16.263 13.2374C16.5912 13.5656 17.0363 13.75 17.5004 13.75ZM7.50042 7.25C7.96454 7.25 8.40966 7.06563 8.73785 6.73744C9.06604 6.40925 9.25042 5.96413 9.25042 5.5C9.25042 5.03587 9.06604 4.59075 8.73785 4.26256C8.40966 3.93438 7.96454 3.75 7.50042 3.75C7.03629 3.75 6.59117 3.93438 6.26298 4.26256C5.93479 4.59075 5.75042 5.03587 5.75042 5.5C5.75042 5.96413 5.93479 6.40925 6.26298 6.73744C6.59117 7.06563 7.03629 7.25 7.50042 7.25Z" fill="black"/>
</svg>
