<svg width="28" height="28" viewBox="0 0 28 28" fill="none" xmlns="http://www.w3.org/2000/svg">
<path d="M24.5003 7.85156C24.4769 7.85156 24.4419 7.85156 24.4069 7.85156C18.2353 7.23322 12.0753 6.99989 5.9736 7.61822L3.5936 7.85156C3.1036 7.89822 2.67193 7.54822 2.62527 7.05822C2.5786 6.56822 2.9286 6.14822 3.40693 6.10156L5.78693 5.86822C11.9936 5.23822 18.2819 5.48322 24.5819 6.10156C25.0603 6.14822 25.4103 6.57989 25.3636 7.05822C25.3286 7.51322 24.9436 7.85156 24.5003 7.85156Z" fill="#6C6F93"/>
<path d="M9.91688 6.6735C9.87021 6.6735 9.82355 6.6735 9.76521 6.66183C9.29855 6.58016 8.97188 6.12516 9.05355 5.6585L9.31021 4.13016C9.49688 3.01016 9.75355 1.4585 12.4719 1.4585H15.5285C18.2585 1.4585 18.5152 3.0685 18.6902 4.14183L18.9469 5.6585C19.0285 6.13683 18.7019 6.59183 18.2352 6.66183C17.7569 6.7435 17.3019 6.41683 17.2319 5.95016L16.9752 4.4335C16.8119 3.4185 16.7769 3.22016 15.5402 3.22016H12.4835C11.2469 3.22016 11.2235 3.3835 11.0485 4.42183L10.7802 5.9385C10.7102 6.37016 10.3369 6.6735 9.91688 6.6735Z" fill="#6C6F93"/>
<path d="M17.7448 26.5415H10.2548C6.18313 26.5415 6.0198 24.2898 5.89147 22.4698L5.13313 10.7215C5.09813 10.2432 5.47147 9.82318 5.9498 9.78818C6.4398 9.76484 6.84813 10.1265 6.88313 10.6048L7.64147 22.3532C7.7698 24.1265 7.81647 24.7915 10.2548 24.7915H17.7448C20.1948 24.7915 20.2415 24.1265 20.3581 22.3532L21.1165 10.6048C21.1515 10.1265 21.5715 9.76484 22.0498 9.78818C22.5281 9.82318 22.9015 10.2315 22.8665 10.7215L22.1081 22.4698C21.9798 24.2898 21.8165 26.5415 17.7448 26.5415Z" fill="#6C6F93"/>
<path d="M15.9368 20.125H12.0518C11.5734 20.125 11.1768 19.7283 11.1768 19.25C11.1768 18.7717 11.5734 18.375 12.0518 18.375H15.9368C16.4151 18.375 16.8118 18.7717 16.8118 19.25C16.8118 19.7283 16.4151 20.125 15.9368 20.125Z" fill="#6C6F93"/>
<path d="M16.9163 15.4585H11.083C10.6047 15.4585 10.208 15.0618 10.208 14.5835C10.208 14.1052 10.6047 13.7085 11.083 13.7085H16.9163C17.3947 13.7085 17.7913 14.1052 17.7913 14.5835C17.7913 15.0618 17.3947 15.4585 16.9163 15.4585Z" fill="#6C6F93"/>
</svg>
